<svg width="32" height="32" viewBox="0 0 32 32" fill="none" xmlns="http://www.w3.org/2000/svg">
<g clip-path="url(#clip0_445_6376)">
<path d="M-0.333984 24.3333V22.2189C-0.333984 21.2725 0.149349 20.4994 1.11602 19.8997C2.08268 19.2999 3.3813 19 5.01188 19H5.46602C5.62157 19 5.76602 19.0072 5.89935 19.0217C5.69935 19.4739 5.53624 19.9242 5.41002 20.3727C5.28377 20.8212 5.22065 21.3061 5.22065 21.8274V24.3333H-0.333984ZM7.66602 24.3333V21.8333C7.66602 21.0333 7.86577 20.3202 8.26528 19.6938C8.66477 19.0675 9.23168 18.5251 9.96601 18.0667C10.7186 17.6222 11.6085 17.2778 12.6355 17.0333C13.6626 16.7889 14.779 16.6667 15.9847 16.6667C17.2149 16.6667 18.3433 16.7889 19.3697 17.0333C20.3962 17.2778 21.2838 17.6222 22.0327 18.0667C22.766 18.5333 23.3327 19.0778 23.7327 19.7C24.1327 20.3222 24.3327 21.0333 24.3327 21.8333V24.3333H7.66602ZM26.766 24.3333V21.8143C26.766 21.3025 26.7105 20.8126 26.5993 20.3443C26.4882 19.8761 26.3438 19.4361 26.166 19.0242C26.2993 19.0081 26.4362 19 26.5765 19H26.9993C28.6416 19 29.941 19.2935 30.8977 19.8806C31.8543 20.4676 32.3327 21.2519 32.3327 22.2333V24.3333H26.766ZM4.99348 18.0667C4.3085 18.0667 3.71602 17.8192 3.21602 17.3242C2.71602 16.8293 2.46602 16.2364 2.46602 15.5456C2.46602 14.8263 2.71676 14.2222 3.21825 13.7333C3.71974 13.2444 4.31266 13 4.99701 13C5.68746 13 6.28824 13.244 6.79935 13.732C7.31046 14.22 7.56602 14.8256 7.56602 15.5489C7.56602 16.2274 7.31419 16.8167 6.81055 17.3167C6.30693 17.8167 5.70124 18.0667 4.99348 18.0667ZM26.9935 18.0667C26.3085 18.0667 25.716 17.8192 25.216 17.3242C24.716 16.8293 24.466 16.2364 24.466 15.5456C24.466 14.8263 24.7168 14.2222 25.2182 13.7333C25.7197 13.2444 26.3127 13 26.997 13C27.6875 13 28.2882 13.244 28.7993 13.732C29.3105 14.22 29.566 14.8256 29.566 15.5489C29.566 16.2274 29.3142 16.8167 28.8105 17.3167C28.3069 17.8167 27.7012 18.0667 26.9935 18.0667ZM16.0314 15.6667C14.846 15.6667 13.8221 15.2405 12.9597 14.3882C12.0972 13.5359 11.666 12.5168 11.666 11.331C11.666 10.1103 12.0972 9.08333 12.9597 8.25C13.8221 7.41667 14.846 7 16.0314 7C17.2516 7 18.2735 7.41409 19.0972 8.24227C19.9208 9.07042 20.3327 10.0979 20.3327 11.3248C20.3327 12.5167 19.9208 13.5383 19.0972 14.3897C18.2735 15.241 17.2516 15.6667 16.0314 15.6667Z" fill="#545E76"/>
</g>
<defs>
<clipPath id="clip0_445_6376">
<rect width="32" height="32" fill="white"/>
</clipPath>
</defs>
</svg>
