<svg width="80" height="80" viewBox="0 0 80 80" fill="none" xmlns="http://www.w3.org/2000/svg">
<g clip-path="url(#clip0_7_3738)">
<path d="M23.666 48.3333V46.2189C23.666 45.2725 24.1493 44.4994 25.116 43.8997C26.0827 43.2999 27.3813 43 29.0119 43H29.466C29.6216 43 29.766 43.0072 29.8993 43.0217C29.6993 43.4739 29.5362 43.9242 29.41 44.3727C29.2838 44.8212 29.2206 45.3061 29.2206 45.8274V48.3333H23.666ZM31.666 48.3333V45.8333C31.666 45.0333 31.8658 44.3202 32.2653 43.6938C32.6648 43.0675 33.2317 42.5251 33.966 42.0667C34.7186 41.6222 35.6085 41.2778 36.6355 41.0333C37.6626 40.7889 38.779 40.6667 39.9847 40.6667C41.2149 40.6667 42.3433 40.7889 43.3697 41.0333C44.3962 41.2778 45.2838 41.6222 46.0327 42.0667C46.766 42.5333 47.3327 43.0778 47.7327 43.7C48.1327 44.3222 48.3327 45.0333 48.3327 45.8333V48.3333H31.666ZM50.766 48.3333V45.8143C50.766 45.3025 50.7105 44.8126 50.5993 44.3443C50.4882 43.8761 50.3438 43.4361 50.166 43.0242C50.2993 43.0081 50.4362 43 50.5765 43H50.9993C52.6416 43 53.941 43.2935 54.8977 43.8806C55.8543 44.4676 56.3327 45.2519 56.3327 46.2333V48.3333H50.766ZM28.9935 42.0667C28.3085 42.0667 27.716 41.8192 27.216 41.3242C26.716 40.8293 26.466 40.2364 26.466 39.5456C26.466 38.8263 26.7168 38.2222 27.2182 37.7333C27.7197 37.2444 28.3127 37 28.997 37C29.6875 37 30.2882 37.244 30.7993 37.732C31.3105 38.22 31.566 38.8256 31.566 39.5489C31.566 40.2274 31.3142 40.8167 30.8105 41.3167C30.3069 41.8167 29.7012 42.0667 28.9935 42.0667ZM50.9935 42.0667C50.3085 42.0667 49.716 41.8192 49.216 41.3242C48.716 40.8293 48.466 40.2364 48.466 39.5456C48.466 38.8263 48.7168 38.2222 49.2182 37.7333C49.7197 37.2444 50.3127 37 50.997 37C51.6875 37 52.2882 37.244 52.7993 37.732C53.3105 38.22 53.566 38.8256 53.566 39.5489C53.566 40.2274 53.3142 40.8167 52.8105 41.3167C52.3069 41.8167 51.7012 42.0667 50.9935 42.0667ZM40.0314 39.6667C38.846 39.6667 37.8221 39.2405 36.9597 38.3882C36.0972 37.5359 35.666 36.5168 35.666 35.331C35.666 34.1103 36.0972 33.0833 36.9597 32.25C37.8221 31.4167 38.846 31 40.0314 31C41.2516 31 42.2735 31.4141 43.0972 32.2423C43.9208 33.0704 44.3327 34.0979 44.3327 35.3248C44.3327 36.5167 43.9208 37.5383 43.0972 38.3897C42.2735 39.241 41.2516 39.6667 40.0314 39.6667Z" fill="#545E76"/>
</g>
<circle opacity="0.12" cx="40" cy="40" r="40" fill="#545E76"/>
<defs>
<clipPath id="clip0_7_3738">
<rect width="32" height="32" fill="white" transform="translate(24 24)"/>
</clipPath>
</defs>
</svg>
