<svg width="80" height="80" viewBox="0 0 80 80" fill="none" xmlns="http://www.w3.org/2000/svg">
<path d="M42.6661 37.7667V36.1667C43.3995 35.8822 44.1495 35.6556 44.9161 35.4867C45.6828 35.3178 46.4884 35.2333 47.3328 35.2333C47.9106 35.2333 48.4773 35.2778 49.0328 35.3667C49.5884 35.4556 50.1328 35.5667 50.6661 35.7V37.1667C50.1328 36.9667 49.5939 36.8167 49.0495 36.7167C48.505 36.6167 47.9328 36.5667 47.3328 36.5667C46.4884 36.5667 45.6773 36.6722 44.8995 36.8833C44.1217 37.0944 43.3773 37.3889 42.6661 37.7667ZM42.6661 45.1V43.4667C43.3995 43.1933 44.1495 42.975 44.9161 42.8117C45.6828 42.6483 46.4884 42.5667 47.3328 42.5667C47.9106 42.5667 48.4773 42.6111 49.0328 42.7C49.5884 42.7889 50.1328 42.9 50.6661 43.0333V44.5C50.1328 44.3 49.5939 44.15 49.0495 44.05C48.505 43.95 47.9328 43.9 47.3328 43.9C46.4884 43.9 45.6773 44 44.8995 44.2C44.1217 44.4 43.3773 44.7 42.6661 45.1ZM42.6661 41.4333V39.8333C43.3995 39.5489 44.1495 39.3222 44.9161 39.1533C45.6828 38.9844 46.4884 38.9 47.3328 38.9C47.9106 38.9 48.4773 38.9444 49.0328 39.0333C49.5884 39.1222 50.1328 39.2333 50.6661 39.3667V40.8333C50.1328 40.6333 49.5939 40.4833 49.0495 40.3833C48.505 40.2833 47.9328 40.2333 47.3328 40.2333C46.4884 40.2333 45.6773 40.3389 44.8995 40.55C44.1217 40.7611 43.3773 41.0556 42.6661 41.4333ZM41.0328 48.5667C42.1443 48.0111 43.2362 47.5944 44.3085 47.3167C45.3808 47.0389 46.52 46.9 47.7259 46.9C48.575 46.9 49.4495 46.9667 50.3495 47.1C51.2495 47.2333 52.0106 47.4111 52.6328 47.6333V33.3299C51.8773 32.9322 51.0848 32.6556 50.2554 32.5C49.426 32.3444 48.5829 32.2667 47.7259 32.2667C46.52 32.2667 45.353 32.45 44.2249 32.8167C43.0968 33.1833 42.0328 33.6972 41.0328 34.3582V48.5667ZM40.1388 52.4C38.9889 51.5767 37.7527 50.9097 36.4302 50.3992C35.1077 49.8886 33.7197 49.6333 32.2661 49.6333C31.5231 49.6333 30.7897 49.7384 30.066 49.9484C29.3424 50.1585 28.6202 50.3757 27.8995 50.6C27.1784 50.9778 26.4536 50.9649 25.7253 50.5613C24.997 50.1578 24.6328 49.504 24.6328 48.6V33.2769C24.6328 32.7368 24.755 32.2256 24.9995 31.7433C25.2439 31.2611 25.6106 30.9022 26.0995 30.6667C27.0995 30.2667 28.1054 29.9722 29.1173 29.7833C30.1293 29.5944 31.1579 29.5 32.2031 29.5C33.6077 29.5 34.9804 29.6944 36.3214 30.0833C37.6623 30.4722 38.9106 31.0778 40.0661 31.9C41.2217 31.1 42.4479 30.5 43.7447 30.1C45.0416 29.7 46.3944 29.5 47.8031 29.5C48.8507 29.5 49.8731 29.6 50.8703 29.8C51.8675 30 52.8683 30.2929 53.8725 30.6786C54.3571 30.9062 54.7273 31.2611 54.9828 31.7433C55.2384 32.2256 55.3661 32.7444 55.3661 33.3V48.9667C55.3661 49.7875 54.9959 50.376 54.2553 50.7323C53.5148 51.0885 52.785 51.0444 52.0661 50.6C51.3677 50.3534 50.6555 50.1307 49.9297 49.9317C49.2039 49.7328 48.4683 49.6333 47.723 49.6333C46.3401 49.6333 45.0146 49.8997 43.7467 50.4325C42.4787 50.9653 41.2761 51.6211 40.1388 52.4Z" fill="#545E76"/>
<circle opacity="0.12" cx="40" cy="40" r="40" fill="#545E76"/>
</svg>
