<svg width="32" height="32" viewBox="0 0 32 32" fill="none" xmlns="http://www.w3.org/2000/svg">
<path d="M18.6661 13.7667V12.1667C19.3995 11.8822 20.1495 11.6556 20.9161 11.4867C21.6828 11.3178 22.4884 11.2333 23.3328 11.2333C23.9106 11.2333 24.4773 11.2778 25.0328 11.3667C25.5884 11.4556 26.1328 11.5667 26.6661 11.7V13.1667C26.1328 12.9667 25.5939 12.8167 25.0495 12.7167C24.505 12.6167 23.9328 12.5667 23.3328 12.5667C22.4884 12.5667 21.6773 12.6722 20.8995 12.8833C20.1217 13.0944 19.3773 13.3889 18.6661 13.7667ZM18.6661 21.1V19.4667C19.3995 19.1933 20.1495 18.975 20.9161 18.8117C21.6828 18.6483 22.4884 18.5667 23.3328 18.5667C23.9106 18.5667 24.4773 18.6111 25.0328 18.7C25.5884 18.7889 26.1328 18.9 26.6661 19.0333V20.5C26.1328 20.3 25.5939 20.15 25.0495 20.05C24.505 19.95 23.9328 19.9 23.3328 19.9C22.4884 19.9 21.6773 20 20.8995 20.2C20.1217 20.4 19.3773 20.7 18.6661 21.1ZM18.6661 17.4333V15.8333C19.3995 15.5489 20.1495 15.3222 20.9161 15.1533C21.6828 14.9844 22.4884 14.9 23.3328 14.9C23.9106 14.9 24.4773 14.9444 25.0328 15.0333C25.5884 15.1222 26.1328 15.2333 26.6661 15.3667V16.8333C26.1328 16.6333 25.5939 16.4833 25.0495 16.3833C24.505 16.2833 23.9328 16.2333 23.3328 16.2333C22.4884 16.2333 21.6773 16.3389 20.8995 16.55C20.1217 16.7611 19.3773 17.0556 18.6661 17.4333ZM17.0328 24.5667C18.1443 24.0111 19.2362 23.5944 20.3085 23.3167C21.3808 23.0389 22.52 22.9 23.7259 22.9C24.575 22.9 25.4495 22.9667 26.3495 23.1C27.2495 23.2333 28.0106 23.4111 28.6328 23.6333V9.32993C27.8773 8.9322 27.0848 8.65556 26.2554 8.5C25.426 8.34444 24.5829 8.26667 23.7259 8.26667C22.52 8.26667 21.353 8.45 20.2249 8.81667C19.0968 9.18333 18.0328 9.69717 17.0328 10.3582V24.5667ZM16.1388 28.4C14.9889 27.5767 13.7527 26.9097 12.4302 26.3992C11.1077 25.8886 9.71966 25.6333 8.26615 25.6333C7.52306 25.6333 6.78969 25.7384 6.06605 25.9484C5.34238 26.1585 4.62019 26.3757 3.89948 26.6C3.17837 26.9778 2.45365 26.9649 1.72531 26.5613C0.996979 26.1578 0.632812 25.504 0.632812 24.6V9.27693C0.632812 8.73676 0.755035 8.22556 0.999479 7.74333C1.24392 7.26111 1.61059 6.90222 2.09948 6.66667C3.09948 6.26667 4.10543 5.97222 5.11735 5.78333C6.12926 5.59444 7.15786 5.5 8.20315 5.5C9.60768 5.5 10.9804 5.69444 12.3214 6.08333C13.6623 6.47222 14.9106 7.07778 16.0661 7.9C17.2217 7.1 18.4479 6.5 19.7447 6.1C21.0416 5.7 22.3944 5.5 23.8031 5.5C24.8507 5.5 25.8731 5.6 26.8703 5.8C27.8675 6 28.8683 6.29286 29.8725 6.67857C30.3571 6.90619 30.7273 7.26111 30.9828 7.74333C31.2384 8.22556 31.3661 8.74444 31.3661 9.3V24.9667C31.3661 25.7875 30.9959 26.376 30.2553 26.7323C29.5148 27.0885 28.785 27.0444 28.0661 26.6C27.3677 26.3534 26.6555 26.1307 25.9297 25.9317C25.2039 25.7328 24.4683 25.6333 23.723 25.6333C22.3401 25.6333 21.0146 25.8997 19.7467 26.4325C18.4787 26.9653 17.2761 27.6211 16.1388 28.4Z" fill="#545E76"/>
</svg>
