<svg width="32" height="32" viewBox="0 0 32 32" fill="none" xmlns="http://www.w3.org/2000/svg">
<path d="M28.999 9.99984H24.929C25.8094 11.5253 26.1618 13.2987 25.9315 15.0448C25.7012 16.791 24.9011 18.4123 23.6553 19.6573C22.5903 20.7436 21.204 21.7723 19.674 22.7211C19.5783 22.7794 19.4657 22.8038 19.3544 22.7904C19.2431 22.7771 19.1395 22.7267 19.0603 22.6473L14.7053 18.2923C14.6106 18.1976 14.4978 18.1228 14.3736 18.0725C14.2494 18.0222 14.1164 17.9974 13.9824 17.9995C13.8484 18.0016 13.7162 18.0306 13.5937 18.0847C13.4712 18.1389 13.3607 18.2172 13.269 18.3148C13.0926 18.5128 12.9994 18.7713 13.0089 19.0364C13.0185 19.3014 13.13 19.5526 13.3203 19.7373L17.0553 23.4723C17.1111 23.528 17.1529 23.5961 17.1774 23.6711C17.2018 23.746 17.2082 23.8256 17.196 23.9035C17.1839 23.9814 17.1534 24.0553 17.1072 24.1192C17.0611 24.1831 17.0004 24.2351 16.9303 24.2711C11.9665 26.8486 6.62403 28.5673 5.84653 28.8098C5.4746 28.9831 5.05837 29.0378 4.6543 28.9665C4.25023 28.8951 3.87788 28.7013 3.58774 28.4111C3.2976 28.121 3.10373 27.7486 3.0324 27.3446C2.96108 26.9405 3.01576 26.5243 3.18903 26.1523C3.53028 25.0636 6.81403 14.8686 11.2965 9.48359C11.3411 9.43031 11.3962 9.38689 11.4585 9.3561C11.5207 9.32532 11.5887 9.30784 11.6581 9.30478C11.7275 9.30172 11.7968 9.31315 11.8615 9.33834C11.9262 9.36353 11.985 9.40193 12.034 9.45109L17.2903 14.7086C17.3875 14.8058 17.5037 14.8818 17.6316 14.9321C17.7596 14.9823 17.8965 15.0056 18.0339 15.0006C18.1712 14.9955 18.3061 14.9622 18.43 14.9028C18.5539 14.8433 18.6642 14.7589 18.754 14.6548C18.9183 14.4565 19.0019 14.2036 18.988 13.9464C18.9741 13.6893 18.8638 13.4468 18.679 13.2673L13.509 8.09734C13.4563 8.04484 13.416 7.98124 13.391 7.91118C13.3659 7.84111 13.3569 7.76635 13.3644 7.69233C13.372 7.61832 13.3959 7.54692 13.4346 7.48335C13.4732 7.41977 13.5256 7.36562 13.5878 7.32484C14.828 6.50615 16.2718 6.04911 17.7573 6.00495C19.2427 5.96079 20.7111 6.33127 21.9978 7.07484V2.99984C21.9975 2.86264 22.0254 2.72684 22.0798 2.6009C22.1342 2.47495 22.214 2.36155 22.3141 2.26776C22.4142 2.17396 22.5326 2.10177 22.6618 2.05568C22.7911 2.00958 22.9284 1.99058 23.0653 1.99984C23.323 2.02226 23.5626 2.14151 23.7359 2.33356C23.9091 2.52562 24.0032 2.77621 23.999 3.03484V6.58609L27.2915 3.29234C27.3844 3.19943 27.4947 3.12573 27.6161 3.07545C27.7375 3.02516 27.8676 2.99928 27.999 2.99928C28.1304 2.99928 28.2605 3.02516 28.3819 3.07545C28.5033 3.12573 28.6136 3.19943 28.7065 3.29234C28.7994 3.38525 28.8731 3.49555 28.9234 3.61694C28.9737 3.73834 28.9996 3.86844 28.9996 3.99984C28.9996 4.13123 28.9737 4.26134 28.9234 4.38274C28.8731 4.50413 28.7994 4.61443 28.7065 4.70734L25.4128 7.99984H28.964C29.2227 7.99571 29.4732 8.08974 29.6653 8.26301C29.8574 8.43628 29.9766 8.6759 29.999 8.93359C30.0081 9.07038 29.989 9.20757 29.9428 9.33665C29.8966 9.46573 29.8244 9.58393 29.7306 9.68393C29.6369 9.78392 29.5235 9.86356 29.3977 9.91791C29.2718 9.97225 29.1361 10.0001 28.999 9.99984Z" fill="#545E76"/>
</svg>
