<svg width="80" height="80" viewBox="0 0 80 80" fill="none" xmlns="http://www.w3.org/2000/svg">
<circle opacity="0.12" cx="40" cy="40" r="40" fill="#545E76"/>
<path d="M52.999 33.9998H48.929C49.8094 35.5253 50.1618 37.2987 49.9315 39.0448C49.7012 40.791 48.9011 42.4123 47.6553 43.6573C46.5903 44.7436 45.204 45.7723 43.674 46.7211C43.5783 46.7794 43.4657 46.8038 43.3544 46.7904C43.2431 46.7771 43.1395 46.7267 43.0603 46.6473L38.7053 42.2923C38.6106 42.1976 38.4978 42.1228 38.3736 42.0725C38.2494 42.0222 38.1164 41.9974 37.9824 41.9995C37.8484 42.0016 37.7162 42.0306 37.5937 42.0847C37.4712 42.1389 37.3607 42.2172 37.269 42.3148C37.0926 42.5128 36.9994 42.7713 37.0089 43.0364C37.0185 43.3014 37.13 43.5526 37.3203 43.7373L41.0553 47.4723C41.1111 47.528 41.1529 47.5961 41.1774 47.6711C41.2018 47.746 41.2082 47.8256 41.196 47.9035C41.1839 47.9814 41.1534 48.0553 41.1072 48.1192C41.0611 48.1831 41.0004 48.2351 40.9303 48.2711C35.9665 50.8486 30.624 52.5673 29.8465 52.8098C29.4746 52.9831 29.0584 53.0378 28.6543 52.9665C28.2502 52.8951 27.8779 52.7013 27.5877 52.4111C27.2976 52.121 27.1037 51.7486 27.0324 51.3446C26.9611 50.9405 27.0158 50.5243 27.189 50.1523C27.5303 49.0636 30.814 38.8686 35.2965 33.4836C35.3411 33.4303 35.3962 33.3869 35.4585 33.3561C35.5207 33.3253 35.5887 33.3078 35.6581 33.3048C35.7275 33.3017 35.7968 33.3132 35.8615 33.3383C35.9262 33.3635 35.985 33.4019 36.034 33.4511L41.2903 38.7086C41.3875 38.8058 41.5037 38.8818 41.6316 38.9321C41.7596 38.9823 41.8965 39.0056 42.0339 39.0006C42.1712 38.9955 42.3061 38.9622 42.43 38.9028C42.5539 38.8433 42.6642 38.7589 42.754 38.6548C42.9183 38.4565 43.0019 38.2036 42.988 37.9464C42.9741 37.6893 42.8638 37.4468 42.679 37.2673L37.509 32.0973C37.4563 32.0448 37.416 31.9812 37.391 31.9112C37.3659 31.8411 37.3569 31.7663 37.3644 31.6923C37.372 31.6183 37.3959 31.5469 37.4346 31.4833C37.4732 31.4198 37.5256 31.3656 37.5878 31.3248C38.828 30.5062 40.2718 30.0491 41.7573 30.005C43.2427 29.9608 44.7111 30.3313 45.9978 31.0748V26.9998C45.9975 26.8626 46.0254 26.7268 46.0798 26.6009C46.1342 26.475 46.214 26.3616 46.3141 26.2678C46.4142 26.174 46.5326 26.1018 46.6618 26.0557C46.7911 26.0096 46.9284 25.9906 47.0653 25.9998C47.323 26.0223 47.5626 26.1415 47.7359 26.3336C47.9091 26.5256 48.0032 26.7762 47.999 27.0348V30.5861L51.2915 27.2923C51.3844 27.1994 51.4947 27.1257 51.6161 27.0754C51.7375 27.0252 51.8676 26.9993 51.999 26.9993C52.1304 26.9993 52.2605 27.0252 52.3819 27.0754C52.5033 27.1257 52.6136 27.1994 52.7065 27.2923C52.7994 27.3852 52.8731 27.4956 52.9234 27.6169C52.9737 27.7383 52.9996 27.8684 52.9996 27.9998C52.9996 28.1312 52.9737 28.2613 52.9234 28.3827C52.8731 28.5041 52.7994 28.6144 52.7065 28.7073L49.4128 31.9998H52.964C53.2227 31.9957 53.4732 32.0897 53.6653 32.263C53.8574 32.4363 53.9766 32.6759 53.999 32.9336C54.0081 33.0704 53.989 33.2076 53.9428 33.3366C53.8966 33.4657 53.8244 33.5839 53.7306 33.6839C53.6369 33.7839 53.5235 33.8636 53.3977 33.9179C53.2718 33.9723 53.1361 34.0001 52.999 33.9998Z" fill="#545E76"/>
</svg>
