<svg width="60" height="60" viewBox="0 0 60 60" fill="none" xmlns="http://www.w3.org/2000/svg">
<path d="M17.3831 26.2124C22.8056 26.2124 27.2194 30.6224 27.2194 36.0487C27.2194 41.4749 22.8094 45.8849 17.3831 45.8849C11.9606 45.8849 7.54688 41.4749 7.54688 36.0487L7.5 34.6705C7.5 23.7787 16.3256 14.998 27.1725 14.998V20.6043C23.4037 20.6043 19.9106 22.0743 17.2444 24.7387C16.7362 25.2468 16.2806 25.7493 15.8194 26.3474C16.3275 26.2555 16.8769 26.2124 17.3831 26.2124ZM42.6637 26.2124C48.0863 26.2124 52.5 30.6224 52.5 36.0487C52.5 41.4749 48.09 45.8849 42.6637 45.8849C37.2412 45.8849 32.8275 41.4749 32.8275 36.0487L32.7806 34.6705C32.7806 23.7787 41.6063 14.998 52.4531 14.998V20.6043C48.7313 20.6043 45.1912 22.0743 42.525 24.7387C42.0169 25.2468 41.5612 25.7493 41.1469 26.3474C41.655 26.2555 42.1575 26.2105 42.6656 26.2105L42.6637 26.2087V26.2124Z" fill="white"/>
</svg>
