<svg width="69" height="68" viewBox="0 0 69 68" fill="none" xmlns="http://www.w3.org/2000/svg">
<circle cx="34.5" cy="34" r="33.5" stroke="#E5E8EF"/>
<path d="M29.4532 32.485C31.6223 32.485 33.3878 34.249 33.3878 36.4195C33.3878 38.59 31.6237 40.354 29.4532 40.354C27.2843 40.354 25.5188 38.59 25.5188 36.4195L25.5 35.8683C25.5 31.5115 29.0302 27.9993 33.369 27.9993V30.2418C31.8615 30.2418 30.4642 30.8298 29.3977 31.8955C29.1945 32.0988 29.0123 32.2998 28.8278 32.539C29.031 32.5023 29.2507 32.485 29.4532 32.485ZM39.5655 32.485C41.7345 32.485 43.5 34.249 43.5 36.4195C43.5 38.59 41.736 40.354 39.5655 40.354C37.3965 40.354 35.631 38.59 35.631 36.4195L35.6122 35.8683C35.6122 31.5115 39.1425 27.9993 43.4813 27.9993V30.2418C41.9925 30.2418 40.5765 30.8298 39.51 31.8955C39.3068 32.0988 39.1245 32.2998 38.9587 32.539C39.162 32.5023 39.363 32.4843 39.5662 32.4843L39.5655 32.4835V32.485Z" fill="#545E76"/>
</svg>
